<svg xmlns="http://www.w3.org/2000/svg" version="1.1" xmlns:xlink="http://www.w3.org/1999/xlink" viewBox="0 0 10.743803529512526 8.724679904555934"><g transform="matrix(1,0,0,1,0.8059380196390755,6.759241884916858)"><rect width="10.743803529512526" height="10.743803529512526" x="-0.8059380196390755" y="-7.768803697395154" fill="#dceac6"></rect><g clip-path="url(#SvgjsClipPath1002)"><g clip-path="url(#SvgjsClipPath10007eb1a297-b085-42d8-851a-e2ae1ceeb80b)"><path d=" M 6.45722441740399 -3.64101366556912 C 6.45722441740399 -3.0313431988772384 6.217354454053818 -2.451343017832774 5.78158092219909 -2.0079058339980276 C 5.197502834596451 -1.4125549127489343 3.4334567045165714 -0.2893963271511124 3.3429224916761497 -0.2592104441227763 C 3.324501603430597 -0.2530701480409254 3.305072956667793 -0.2499999999999991 3.2861364710413214 -0.2499999999999991 C 3.2339673905901747 -0.2499999999999991 3.1828295049008655 -0.2730143921846482 3.148050117933434 -0.3144496726148489 C 3.067241946596708 -0.4111007452925337 3.082592686801335 -0.4525360257227353 3.312221011266894 -0.9670787756351018 C 3.3577576344998583 -1.0688623858773871 3.453377512415707 -1.2795776609610634 3.5561923174198307 -1.4887695801465677 L 2.548621290126166 -1.4887695801465677 L 3.849262555982988 -1.8467816524609066 C 3.912681033835999 -1.8467816524609066 3.970990410368997 -1.8135256213916442 4.0032152466764215 -1.7593175876614096 C 4.035440082983846 -1.705109553931175 4.036963438882015 -1.6375897332754006 4.006800992098266 -1.582350504783328 C 3.8988770857741284 -1.3838923856187684 3.7710089353062686 -1.1143521366211768 3.6661551770230565 -0.8806224693528542 C 4.226726711304717 -1.2463216298917992 5.143247928377041 -1.868764849883716 5.526336782399702 -2.2585095973691467 C 5.895621688360492 -2.6349425579290378 6.099165472600477 -3.1254397208949167 6.099165472600477 -3.640990229324532 C 6.099165472600477 -4.718635627933978 5.22302490495193 -5.595291792963445 4.145895103723403 -5.595291792963445 L 1.4694525356185515 -5.595291792963445 C 1.3707390734171903 -5.595291792963445 1.2904464994613825 -5.675584366919253 1.2904464994613825 -5.774297829120614 C 1.2904464994613825 -5.8730112913219745 1.3707390734171903 -5.953303865277783 1.4694525356185515 -5.953303865277783 L 4.145941976212577 -5.953303865277783 C 5.420498701843826 -5.953303865277783 6.4572478536485765 -4.9160625523367 6.4572478536485765 -3.640990229324532 Z" fill="#212245" transform="matrix(1,0,0,1,0,0)" fill-rule="nonzero"></path></g><g clip-path="url(#SvgjsClipPath10007eb1a297-b085-42d8-851a-e2ae1ceeb80b)"><path d=" M 4.260498339754898 -4.930921131404997 C 3.9469682596670985 -5.245458970010046 3.5122259225742103 -5.439815746371842 3.0340093517720326 -5.439815746371842 L 1.7343758444324608 -5.439815746371842 C 0.7759037495490171 -5.439815746371842 0 -4.6623886409246555 0 -3.7044321434221317 C 0 -3.2246687804771965 0.1969113270218033 -2.793512188806153 0.5073712590686766 -2.4774275580583476 C 0.9830332792108477 -1.9930706911743177 2.410534937018279 -1.0990248326611365 2.4335493292029273 -1.0913611806811163 C 2.45297797596573 -1.0847052872183465 2.167079228246261 -1.6161221332335076 1.9757925999253907 -1.9685095068469147 L 3.0340093517720326 -1.9685095068469147 C 3.991989285519144 -1.9685095068469147 4.769392954721744 -2.745936612294101 4.769392954721744 -3.7044087071775444 C 4.769392954721744 -4.184148633877892 4.575036178359948 -4.617367615072611 4.260498339754899 -4.93089769516041 Z M 1.182006995756326 -3.5371911020477453 C 1.023437364879211 -3.5371911020477453 0.8945614558941005 -3.665574849896524 0.8945614558941005 -3.8241210445290523 C 0.8945614558941005 -3.9826672391615805 1.023460801123798 -4.111566584391278 1.182006995756326 -4.111566584391278 C 1.340553190388854 -4.111566584391278 1.4694525356185515 -3.983182836542499 1.4694525356185515 -3.8241210445290523 C 1.4694525356185515 -3.665059252515605 1.340576626633441 -3.5371911020477453 1.182006995756326 -3.5371911020477453 Z M 2.384450396792706 -3.5371911020477453 C 2.2258807659155906 -3.5371911020477453 2.097520454311399 -3.665574849896524 2.097520454311399 -3.8241210445290523 C 2.097520454311399 -3.9826672391615805 2.225904202160178 -4.111566584391278 2.384450396792706 -4.111566584391278 C 2.542996591425234 -4.111566584391278 2.6718959366549315 -3.983182836542499 2.6718959366549315 -3.8241210445290523 C 2.6718959366549315 -3.665059252515605 2.5435121888061527 -3.5371911020477453 2.384450396792706 -3.5371911020477453 Z M 3.5869172340736735 -3.5371911020477453 C 3.428347603196558 -3.5371911020477453 3.299987291592367 -3.665574849896524 3.299987291592367 -3.8241210445290523 C 3.299987291592367 -3.9826672391615805 3.4283710394411453 -4.111566584391278 3.5869172340736735 -4.111566584391278 C 3.7454634287062016 -4.111566584391278 3.874362773935899 -3.983182836542499 3.874362773935899 -3.8241210445290523 C 3.874362773935899 -3.665059252515605 3.74597902608712 -3.5371911020477453 3.5869172340736735 -3.5371911020477453 Z" fill="#4caf7a" transform="matrix(1,0,0,1,0,0)" fill-rule="nonzero"></path></g></g><g><path d=" M 0.315 0.8309999999999998 Q 0.315 0.9344999999999999 0.46425 0.9344999999999999 Q 0.6135 0.9344999999999999 0.6135 0.8414999999999999 Q 0.6135 0.7919999999999998 0.5625 0.7604999999999998 Q 0.5115000000000001 0.7289999999999999 0.43875000000000003 0.7079999999999999 Q 0.366 0.6869999999999998 0.29325 0.6592499999999999 Q 0.2205 0.6314999999999998 0.1695 0.5722499999999998 Q 0.11850000000000001 0.5129999999999998 0.11850000000000001 0.4244999999999999 Q 0.11850000000000001 0.04799999999999982 0.603 0.04799999999999982 Q 0.78 0.04799999999999982 0.87075 0.11474999999999991 Q 0.9615 0.18149999999999977 0.9615 0.2999999999999998 Q 0.9615 0.3434999999999998 0.95025 0.38324999999999987 Q 0.9390000000000001 0.4229999999999998 0.927 0.4394999999999998 L 0.915 0.4574999999999998 L 0.6495 0.4574999999999998 Q 0.6825 0.4229999999999998 0.6825 0.37049999999999983 Q 0.6825 0.2729999999999998 0.555 0.2729999999999998 Q 0.3945 0.2729999999999998 0.3945 0.3749999999999998 Q 0.3945 0.4259999999999998 0.4455 0.45599999999999985 Q 0.4965 0.4859999999999999 0.56925 0.5032499999999999 Q 0.642 0.5204999999999999 0.7155 0.5459999999999998 Q 0.789 0.5714999999999998 0.84 0.6307499999999998 Q 0.891 0.6899999999999998 0.891 0.7844999999999999 Q 0.891 0.9749999999999999 0.777 1.0672499999999998 Q 0.663 1.1594999999999998 0.426 1.1594999999999998 Q 0.189 1.1594999999999998 0.10200000000000001 1.0755 Q 0.0375 1.0124999999999997 0.0375 0.9014999999999999 Q 0.0375 0.8594999999999998 0.0465 0.8099999999999998 L 0.051000000000000004 0.7859999999999998 L 0.321 0.7859999999999998 L 0.318 0.8039999999999998 Q 0.315 0.8189999999999998 0.315 0.8309999999999998 M 1.308015380859375 1.1594999999999998 Q 0.996015380859375 1.1594999999999998 0.996015380859375 0.9434999999999998 Q 0.996015380859375 0.9134999999999999 1.002015380859375 0.8789999999999998 L 1.033515380859375 0.6929999999999998 Q 1.059015380859375 0.5489999999999998 1.166265380859375 0.4717499999999998 Q 1.2735153808593749 0.39449999999999985 1.450515380859375 0.39449999999999985 Q 1.752015380859375 0.39449999999999985 1.752015380859375 0.6224999999999998 Q 1.752015380859375 0.6554999999999999 1.746015380859375 0.6944999999999999 L 1.728015380859375 0.8009999999999998 L 1.270515380859375 0.8009999999999998 L 1.264515380859375 0.8354999999999999 Q 1.2615153808593749 0.8534999999999998 1.2615153808593749 0.8684999999999998 Q 1.2615153808593749 0.9509999999999998 1.359015380859375 0.9509999999999998 Q 1.395015380859375 0.9509999999999998 1.4205153808593751 0.9284999999999999 Q 1.446015380859375 0.9059999999999998 1.450515380859375 0.8759999999999999 L 1.699515380859375 0.8789999999999998 Q 1.650015380859375 1.1594999999999998 1.308015380859375 1.1594999999999998 M 1.488015380859375 0.7094999999999998 Q 1.494015380859375 0.6839999999999998 1.494015380859375 0.6622499999999998 Q 1.494015380859375 0.6404999999999998 1.474515380859375 0.6179999999999999 Q 1.455015380859375 0.5954999999999998 1.412265380859375 0.5954999999999998 Q 1.369515380859375 0.5954999999999998 1.334265380859375 0.6239999999999999 Q 1.299015380859375 0.6524999999999999 1.285515380859375 0.7094999999999998 L 1.488015380859375 0.7094999999999998 M 2.136018310546875 1.1594999999999998 Q 1.824018310546875 1.1594999999999998 1.824018310546875 0.9434999999999998 Q 1.824018310546875 0.9134999999999999 1.830018310546875 0.8789999999999998 L 1.861518310546875 0.6929999999999998 Q 1.885518310546875 0.5489999999999998 1.992768310546875 0.4724999999999998 Q 2.100018310546875 0.3959999999999998 2.265018310546875 0.39449999999999985 Q 2.584518310546875 0.39449999999999985 2.584518310546875 0.6164999999999998 Q 2.584518310546875 0.6644999999999999 2.573268310546875 0.7027499999999998 Q 2.562018310546875 0.7409999999999999 2.550018310546875 0.7544999999999998 L 2.538018310546875 0.7694999999999999 L 2.283018310546875 0.7694999999999999 Q 2.320518310546875 0.7364999999999998 2.320518310546875 0.6914999999999998 Q 2.320518310546875 0.6104999999999998 2.239518310546875 0.6104999999999998 Q 2.191518310546875 0.6104999999999998 2.157018310546875 0.6389999999999998 Q 2.122518310546875 0.6674999999999998 2.112018310546875 0.7259999999999998 L 2.092518310546875 0.8354999999999999 Q 2.089518310546875 0.8504999999999998 2.089518310546875 0.8639999999999999 Q 2.089518310546875 0.9434999999999998 2.188518310546875 0.9434999999999998 Q 2.221518310546875 0.9434999999999998 2.247768310546875 0.9224999999999999 Q 2.274018310546875 0.9014999999999999 2.278518310546875 0.8759999999999999 L 2.527518310546875 0.8789999999999998 Q 2.478018310546875 1.1594999999999998 2.136018310546875 1.1594999999999998 M 3.3810000000000002 0.9074999999999999 Q 3.3810000000000002 0.9464999999999999 3.42075 0.9464999999999999 Q 3.4605 0.9464999999999999 3.4875 0.9314999999999998 L 3.48 1.1009999999999998 Q 3.408 1.1594999999999998 3.318 1.1594999999999998 Q 3.1485 1.1594999999999998 3.1335 1.029 Q 3.0435 1.1594999999999998 2.89125 1.1594999999999998 Q 2.739 1.1594999999999998 2.694 1.0904999999999998 Q 2.664 1.047 2.664 0.9914999999999998 Q 2.664 0.9359999999999998 2.673 0.8894999999999998 L 2.757 0.4169999999999998 L 3.012 0.4169999999999998 L 2.9415 0.8159999999999998 Q 2.937 0.8429999999999999 2.937 0.8699999999999999 Q 2.937 0.9419999999999998 3.018 0.9419999999999998 Q 3.0855 0.9419999999999998 3.126 0.8954999999999999 L 3.2115 0.4169999999999998 L 3.4665 0.4169999999999998 L 3.3825000000000003 0.8894999999999998 Q 3.3810000000000002 0.8984999999999999 3.3810000000000002 0.9074999999999999 M 4.3079853515625 0.5699999999999998 Q 4.3079853515625 0.6209999999999999 4.2907353515625 0.6689999999999998 Q 4.2734853515625 0.7169999999999999 4.2569853515625 0.7394999999999998 L 4.2404853515625 0.7604999999999998 L 4.0139853515625 0.7604999999999998 Q 4.0514853515625 0.7259999999999998 4.0514853515625 0.6749999999999998 Q 4.0514853515625 0.6479999999999999 4.0342353515625 0.6307499999999998 Q 4.0169853515625 0.6134999999999998 3.9869853515625 0.6134999999999998 Q 3.9359853515625 0.6134999999999998 3.8984853515625 0.6644999999999999 L 3.8144853515625 1.1384999999999998 L 3.5594853515625 1.1384999999999998 L 3.6869853515625 0.4169999999999998 L 3.9239853515625 0.4169999999999998 L 3.9059853515625 0.5174999999999998 Q 3.9914853515625 0.3959999999999998 4.1129853515625 0.3959999999999998 Q 4.2104853515625 0.3959999999999998 4.2592353515625 0.4424999999999998 Q 4.3079853515625 0.4889999999999999 4.3079853515625 0.5699999999999998 M 4.654450927734375 1.1594999999999998 Q 4.342450927734375 1.1594999999999998 4.342450927734375 0.9434999999999998 Q 4.342450927734375 0.9134999999999999 4.348450927734375 0.8789999999999998 L 4.379950927734375 0.6929999999999998 Q 4.405450927734375 0.5489999999999998 4.512700927734375 0.4717499999999998 Q 4.619950927734375 0.39449999999999985 4.796950927734375 0.39449999999999985 Q 5.098450927734375 0.39449999999999985 5.098450927734375 0.6224999999999998 Q 5.098450927734375 0.6554999999999999 5.092450927734375 0.6944999999999999 L 5.074450927734375 0.8009999999999998 L 4.616950927734375 0.8009999999999998 L 4.610950927734375 0.8354999999999999 Q 4.607950927734375 0.8534999999999998 4.607950927734375 0.8684999999999998 Q 4.607950927734375 0.9509999999999998 4.7054509277343755 0.9509999999999998 Q 4.741450927734375 0.9509999999999998 4.766950927734375 0.9284999999999999 Q 4.792450927734375 0.9059999999999998 4.796950927734375 0.8759999999999999 L 5.045950927734375 0.8789999999999998 Q 4.996450927734375 1.1594999999999998 4.654450927734375 1.1594999999999998 M 4.834450927734375 0.7094999999999998 Q 4.840450927734375 0.6839999999999998 4.840450927734375 0.6622499999999998 Q 4.840450927734375 0.6404999999999998 4.820950927734375 0.6179999999999999 Q 4.801450927734375 0.5954999999999998 4.758700927734375 0.5954999999999998 Q 4.715950927734375 0.5954999999999998 4.680700927734375 0.6239999999999999 Q 4.645450927734375 0.6524999999999999 4.631950927734375 0.7094999999999998 L 4.834450927734375 0.7094999999999998 M 5.914439208984375 1.1594999999999998 Q 5.699939208984375 1.1594999999999998 5.617439208984375 1.0664999999999998 Q 5.560439208984375 1.0004999999999997 5.560439208984375 0.8819999999999999 Q 5.560439208984375 0.8309999999999998 5.570939208984375 0.7724999999999999 L 5.632439208984375 0.4274999999999999 Q 5.699939208984375 0.04799999999999982 6.119939208984375 0.04799999999999982 Q 6.293939208984375 0.04799999999999982 6.383939208984375 0.12224999999999975 Q 6.473939208984375 0.19649999999999979 6.473939208984375 0.3254999999999998 Q 6.473939208984375 0.38549999999999984 6.4566892089843755 0.44474999999999987 Q 6.439439208984375 0.5039999999999998 6.422939208984375 0.5324999999999999 L 6.406439208984375 0.5624999999999998 L 6.140939208984375 0.5624999999999998 Q 6.190439208984375 0.5054999999999998 6.190439208984375 0.40049999999999986 Q 6.190439208984375 0.34499999999999986 6.161939208984375 0.31274999999999986 Q 6.133439208984375 0.28049999999999986 6.077939208984375 0.28049999999999986 Q 5.926439208984375 0.28049999999999986 5.897939208984375 0.4484999999999998 L 5.845439208984375 0.7514999999999998 Q 5.837939208984375 0.7904999999999998 5.837939208984375 0.8279999999999998 Q 5.837939208984375 0.9269999999999998 5.956439208984375 0.9269999999999998 Q 6.098939208984375 0.9269999999999998 6.127439208984375 0.7664999999999998 L 6.397439208984375 0.7664999999999998 L 6.389939208984375 0.8099999999999998 Q 6.329939208984375 1.1594999999999998 5.914439208984375 1.1594999999999998 M 7.288398193359375 0.9464999999999999 Q 7.322898193359375 0.9464999999999999 7.349898193359375 0.9314999999999998 L 7.342398193359375 1.1009999999999998 Q 7.271898193359375 1.1594999999999998 7.181898193359375 1.1594999999999998 Q 6.977898193359375 1.1594999999999998 6.977898193359375 0.9884999999999998 Q 6.977898193359375 0.9584999999999999 6.983898193359375 0.9239999999999998 L 7.016898193359375 0.7394999999999998 Q 7.021398193359375 0.7124999999999999 7.021398193359375 0.6854999999999998 Q 7.021398193359375 0.6134999999999998 6.945648193359375 0.6134999999999998 Q 6.869898193359375 0.6134999999999998 6.827898193359375 0.6644999999999999 L 6.743898193359375 1.1384999999999998 L 6.488898193359375 1.1384999999999998 L 6.689898193359375 -2.220446049250313e-16 L 6.944898193359375 -2.220446049250313e-16 L 6.859398193359375 0.4844999999999998 Q 6.941898193359375 0.3959999999999998 7.066398193359375 0.3959999999999998 Q 7.217898193359375 0.3959999999999998 7.262898193359375 0.4634999999999998 Q 7.294398193359375 0.5084999999999998 7.294398193359375 0.5639999999999998 Q 7.294398193359375 0.6194999999999998 7.285398193359375 0.6659999999999998 L 7.244898193359375 0.8894999999999998 Q 7.243398193359375 0.8984999999999999 7.243398193359375 0.9059999999999998 Q 7.243398193359375 0.9464999999999999 7.288398193359375 0.9464999999999999 M 8.141926025390624 0.9074999999999999 Q 8.141926025390624 0.9464999999999999 8.181676025390624 0.9464999999999999 Q 8.221426025390626 0.9464999999999999 8.248426025390625 0.9314999999999998 L 8.240926025390625 1.1009999999999998 Q 8.168926025390626 1.1594999999999998 8.078926025390626 1.1594999999999998 Q 7.913926025390625 1.1594999999999998 7.895926025390625 1.0394999999999999 Q 7.820926025390625 1.1594999999999998 7.675426025390625 1.1594999999999998 Q 7.429426025390625 1.1594999999999998 7.429426025390625 0.9479999999999998 Q 7.429426025390625 0.9119999999999998 7.436926025390625 0.8684999999999998 L 7.468426025390625 0.6929999999999998 Q 7.492426025390625 0.5579999999999998 7.578676025390625 0.4777499999999998 Q 7.664926025390625 0.39749999999999985 7.803676025390625 0.39749999999999985 Q 7.942426025390625 0.39749999999999985 7.991926025390625 0.46199999999999986 L 7.999426025390625 0.4169999999999998 L 8.227426025390624 0.4169999999999998 L 8.143426025390625 0.8894999999999998 Q 8.141926025390624 0.8984999999999999 8.141926025390624 0.9074999999999999 M 7.697926025390625 0.8354999999999999 Q 7.694926025390625 0.8489999999999999 7.694926025390625 0.8729999999999998 Q 7.694926025390625 0.8969999999999998 7.717426025390625 0.9202499999999998 Q 7.739926025390625 0.9434999999999998 7.793176025390625 0.9434999999999998 Q 7.846426025390625 0.9434999999999998 7.885426025390625 0.9014999999999999 L 7.930426025390625 0.6494999999999999 Q 7.913926025390625 0.6119999999999999 7.852426025390625 0.6119999999999999 Q 7.736926025390625 0.6119999999999999 7.717426025390625 0.7229999999999999 L 7.697926025390625 0.8354999999999999 M 8.66241064453125 1.1594999999999998 Q 8.48841064453125 1.1594999999999998 8.41191064453125 1.0815 Q 8.35491064453125 1.0244999999999997 8.35491064453125 0.9284999999999999 Q 8.35491064453125 0.8969999999999998 8.36091064453125 0.8609999999999998 L 8.46291064453125 0.28049999999999986 L 8.73741064453125 0.16649999999999987 L 8.69391064453125 0.4169999999999998 L 9.10791064453125 0.4169999999999998 L 9.07041064453125 0.6284999999999998 L 8.65641064453125 0.6284999999999998 L 8.62641064453125 0.7979999999999998 Q 8.62041064453125 0.8264999999999998 8.62041064453125 0.8489999999999999 Q 8.62041064453125 0.9434999999999998 8.71041064453125 0.9434999999999998 Q 8.75841064453125 0.9434999999999998 8.79066064453125 0.9029999999999998 Q 8.82291064453125 0.8624999999999998 8.83491064453125 0.7949999999999998 L 9.08391064453125 0.7949999999999998 Q 9.02091064453125 1.1594999999999998 8.66241064453125 1.1594999999999998" fill="#212245" fill-rule="nonzero"></path></g><g></g></g><defs><clipPath id="SvgjsClipPath1002"><path d=" M 0 -5.953303865277783 h 6.4572478536485765 v 5.703303865277783 h -6.4572478536485765 Z"></path></clipPath><clipPath id="SvgjsClipPath10007eb1a297-b085-42d8-851a-e2ae1ceeb80b"><path d=" M 0 -5.953303865277783 L 6.4572478536485765 -5.953303865277783 L 6.4572478536485765 -0.25 L 0 -0.25 Z"></path></clipPath></defs></svg>